<svg width="25" height="26" viewBox="0 0 25 26" fill="none" xmlns="http://www.w3.org/2000/svg">
<path d="M2.5 6.21121C2.5 5.25348 2.88046 4.33498 3.55767 3.65777C4.23488 2.98055 5.15338 2.6001 6.11111 2.6001H9.16667V22.6001H6.11111C5.15338 22.6001 4.23488 22.2196 3.55767 21.5424C2.88046 20.8652 2.5 19.9467 2.5 18.989V6.21121ZM10.8333 22.6001H18.8889C19.8466 22.6001 20.7651 22.2196 21.4423 21.5424C22.1195 20.8652 22.5 19.9467 22.5 18.989V16.489H10.8333V22.6001ZM22.5 14.8223V6.21121C22.5 5.25348 22.1195 4.33498 21.4423 3.65777C20.7651 2.98055 19.8466 2.6001 18.8889 2.6001H10.8333V14.8223H22.5Z" fill="#6E4DDC"/>
</svg>
