<svg width="46" height="46" viewBox="0 0 46 46" fill="none" xmlns="http://www.w3.org/2000/svg">
<rect x="0.5" y="0.5" width="45" height="45" rx="15" fill="#D9D0F6" fill-opacity="0.3"/>
<circle cx="22.9434" cy="23.105" r="14.5996" fill="#D0C4F7"/>
<path d="M22.9992 23.0001C24.1221 23.0001 25.199 22.554 25.993 21.76C26.7871 20.966 27.2331 19.8891 27.2331 18.7661C27.2331 17.6432 26.7871 16.5663 25.993 15.7723C25.199 14.9783 24.1221 14.5322 22.9992 14.5322C21.8763 14.5322 20.7994 14.9783 20.0054 15.7723C19.2114 16.5663 18.7653 17.6432 18.7653 18.7661C18.7653 19.8891 19.2114 20.966 20.0054 21.76C20.7994 22.554 21.8763 23.0001 22.9992 23.0001ZM21.4876 24.5878C18.2294 24.5878 15.5898 27.2274 15.5898 30.4855C15.5898 31.028 16.0298 31.4679 16.5722 31.4679H29.4262C29.9686 31.4679 30.4086 31.028 30.4086 30.4855C30.4086 27.2274 27.769 24.5878 24.5108 24.5878H21.4876Z" fill="#8B71E3" fill-opacity="0.8"/>
</svg>
