<svg width="25" height="26" viewBox="0 0 25 26" fill="none" xmlns="http://www.w3.org/2000/svg">
<g clip-path="url(#clip0_45_6977)">
<path d="M4.51695 22.6001C4.00847 22.6001 3.5 22.1919 3.5 21.5797C3.5 17.8042 6.65254 14.6409 10.6186 14.6409H14.3814C18.2458 14.6409 21.5 17.7021 21.5 21.5797C21.5 22.0899 21.0932 22.6001 20.483 22.6001H4.51695ZM10.517 16.1715C7.77119 16.1715 5.4322 18.2123 5.02542 20.7634C5.02542 20.8654 5.02542 20.8654 5.02542 20.9674C5.02542 20.9674 5.12712 21.0695 5.22881 21.0695H19.4661C19.5678 21.0695 19.5678 21.0695 19.6695 20.9674C19.7712 20.8654 19.7712 20.8654 19.6695 20.7634C19.3644 18.2123 17.0254 16.1715 14.2797 16.1715H10.517ZM12.4492 12.396C11.1271 12.396 9.80508 11.8858 8.88983 10.9674C7.97458 10.0491 7.4661 8.82459 7.4661 7.49806C7.4661 6.17153 7.97458 4.94704 8.88983 4.02867C9.80508 3.1103 11.1271 2.6001 12.4492 2.6001C13.7712 2.6001 15.0932 3.1103 16.0085 4.02867C16.9237 4.94704 17.4322 6.17153 17.4322 7.49806C17.4322 8.82459 16.9237 10.0491 16.0085 10.9674C14.9915 11.8858 13.7712 12.396 12.4492 12.396ZM12.4492 4.02867C11.5339 4.02867 10.6186 4.33479 10.0085 5.04908C9.39831 5.66132 8.99153 6.57969 8.99153 7.49806C8.99153 8.41642 9.39831 9.23275 10.0085 9.94704C10.6186 10.5593 11.5339 10.9674 12.4492 10.9674C13.3644 10.9674 14.2797 10.6613 14.8898 9.94704C15.5 9.33479 15.9068 8.41642 15.9068 7.49806C15.9068 6.57969 15.5 5.76336 14.8898 5.04908C14.2797 4.43683 13.3644 4.02867 12.4492 4.02867Z" fill="#CDCDCD"/>
</g>
<defs>
<clipPath id="clip0_45_6977">
<rect width="25" height="25" fill="white" transform="translate(0 0.100098)"/>
</clipPath>
</defs>
</svg>
