<svg width="25" height="26" viewBox="0 0 25 26" fill="none" xmlns="http://www.w3.org/2000/svg">
<g clip-path="url(#clip0_45_6993)">
<path d="M3.1009 5.02375C2.58964 5.535 2.18408 6.14196 1.90739 6.80995C1.63069 7.47794 1.48828 8.19389 1.48828 8.91692C1.48828 9.63994 1.63069 10.3559 1.90739 11.0239C2.18408 11.6919 2.58964 12.2988 3.1009 12.8101L12.4998 22.209L21.8987 12.8101C22.9312 11.7776 23.5113 10.3771 23.5113 8.91692C23.5113 7.4567 22.9312 6.05628 21.8987 5.02375C20.8662 3.99122 19.4658 3.41115 18.0055 3.41115C16.5453 3.41115 15.1449 3.99122 14.1124 5.02375L12.4998 6.63632L10.8872 5.02375C10.376 4.51249 9.76902 4.10693 9.10103 3.83024C8.43304 3.55355 7.71709 3.41113 6.99406 3.41113C6.27103 3.41113 5.55509 3.55355 4.88709 3.83024C4.2191 4.10693 3.61215 4.51249 3.1009 5.02375Z" stroke="#CDCDCD" stroke-width="1.5" stroke-linecap="round" stroke-linejoin="round"/>
</g>
<defs>
<clipPath id="clip0_45_6993">
<rect width="25" height="25" fill="white" transform="translate(0 0.100098)"/>
</clipPath>
</defs>
</svg>
