<svg width="26" height="26" viewBox="0 0 26 26" fill="none" xmlns="http://www.w3.org/2000/svg">
<g clip-path="url(#clip0_45_6985)">
<path d="M11.3244 3.64305C11.7408 3.29209 12.2679 3.09961 12.8125 3.09961C13.3571 3.09961 13.8842 3.29209 14.3006 3.64305L21.2278 9.48451C21.7481 9.92375 22.0488 10.5693 22.0488 11.2497V20.8041C22.0488 21.2805 21.8596 21.7373 21.5228 22.0741C21.186 22.4109 20.7292 22.6001 20.2529 22.6001H16.661C16.1847 22.6001 15.7278 22.4109 15.391 22.0741C15.0542 21.7373 14.865 21.2805 14.865 20.8041V15.6657C14.865 15.5976 14.838 15.5324 14.7899 15.4842C14.7418 15.4361 14.6765 15.4091 14.6085 15.4091H11.0165C10.9485 15.4091 10.8832 15.4361 10.8351 15.4842C10.787 15.5324 10.76 15.5976 10.76 15.6657V20.8041C10.76 21.2805 10.5708 21.7373 10.234 22.0741C9.89715 22.4109 9.44035 22.6001 8.96403 22.6001H5.37212C5.13628 22.6001 4.90274 22.5536 4.68484 22.4634C4.46695 22.3731 4.26896 22.2408 4.10219 22.0741C3.93542 21.9073 3.80314 21.7093 3.71288 21.4914C3.62263 21.2735 3.57617 21.04 3.57617 20.8041V11.2497C3.57617 10.5693 3.87687 9.92375 4.39718 9.48451L11.3244 3.64305ZM13.3082 4.82017C13.1694 4.70336 12.9939 4.63931 12.8125 4.63931C12.6311 4.63931 12.4556 4.70336 12.3168 4.82017L5.38957 10.6606C5.30385 10.7328 5.23491 10.8228 5.18758 10.9243C5.14025 11.0259 5.11567 11.1366 5.11556 11.2487V20.8031C5.11556 20.9447 5.2305 21.0597 5.37212 21.0597H8.96403C9.03207 21.0597 9.09733 21.0327 9.14545 20.9845C9.19356 20.9364 9.22059 20.8712 9.22059 20.8031V15.6646C9.22059 14.6723 10.0252 13.8687 11.0165 13.8687H14.6085C15.5998 13.8687 16.4044 14.6723 16.4044 15.6646V20.8031C16.4044 20.9447 16.5193 21.0597 16.661 21.0597H20.2529C20.3209 21.0597 20.3862 21.0327 20.4343 20.9845C20.4824 20.9364 20.5094 20.8712 20.5094 20.8031V11.2487C20.5093 11.1366 20.4847 11.0259 20.4374 10.9243C20.3901 10.8228 20.3212 10.7328 20.2354 10.6606L13.3082 4.82017Z" fill="#CDCDCD"/>
</g>
<defs>
<clipPath id="clip0_45_6985">
<rect width="25" height="25" fill="white" transform="translate(0.3125 0.100586)"/>
</clipPath>
</defs>
</svg>
