<svg width="26" height="26" viewBox="0 0 26 26" fill="none" xmlns="http://www.w3.org/2000/svg">
<path d="M13.1245 22.3994C12.9728 22.4003 12.8224 22.3712 12.6819 22.3138C12.5414 22.2565 12.4137 22.1719 12.3059 22.0651L3.34773 13.0953C2.22405 11.9599 1.59375 10.427 1.59375 8.82953C1.59375 7.23208 2.22405 5.69915 3.34773 4.56372C4.4802 3.43445 6.01425 2.80029 7.61355 2.80029C9.21284 2.80029 10.7469 3.43445 11.8794 4.56372L13.1245 5.80888L14.3697 4.56372C15.5021 3.43445 17.0362 2.80029 18.6355 2.80029C20.2348 2.80029 21.7688 3.43445 22.9013 4.56372C24.025 5.69915 24.6553 7.23208 24.6553 8.82953C24.6553 10.427 24.025 11.9599 22.9013 13.0953L13.9431 22.0651C13.8354 22.1719 13.7076 22.2565 13.5671 22.3138C13.4267 22.3712 13.2762 22.4003 13.1245 22.3994Z" fill="#6E4DDC"/>
</svg>
