<svg width="26" height="26" viewBox="0 0 26 26" fill="none" xmlns="http://www.w3.org/2000/svg">
<g clip-path="url(#clip0_45_6997)">
<g clip-path="url(#clip1_45_6997)">
<path d="M13.4375 12.6001C14.8015 12.6001 16.1096 12.0733 17.074 11.1356C18.0385 10.1979 18.5804 8.92618 18.5804 7.6001C18.5804 6.27402 18.0385 5.00225 17.074 4.06456C16.1096 3.12688 14.8015 2.6001 13.4375 2.6001C12.0735 2.6001 10.7654 3.12688 9.80095 4.06456C8.83648 5.00225 8.29464 6.27402 8.29464 7.6001C8.29464 8.92618 8.83648 10.1979 9.80095 11.1356C10.7654 12.0733 12.0735 12.6001 13.4375 12.6001ZM11.6013 14.4751C7.64375 14.4751 4.4375 17.5923 4.4375 21.4399C4.4375 22.0806 4.97188 22.6001 5.6308 22.6001H21.2442C21.9031 22.6001 22.4375 22.0806 22.4375 21.4399C22.4375 17.5923 19.2313 14.4751 15.2737 14.4751H11.6013Z" fill="#6E4DDC"/>
</g>
</g>
<defs>
<clipPath id="clip0_45_6997">
<rect width="25" height="25" fill="white" transform="translate(0.9375 0.100098)"/>
</clipPath>
<clipPath id="clip1_45_6997">
<rect width="18" height="20" fill="white" transform="translate(4.4375 2.6001)"/>
</clipPath>
</defs>
</svg>
