<svg width="26" height="26" viewBox="0 0 26 26" fill="none" xmlns="http://www.w3.org/2000/svg">
<path d="M21.7396 23.0169H5.07292C4.79665 23.0169 4.5317 22.9072 4.33635 22.7118C4.141 22.5165 4.03125 22.2515 4.03125 21.9753V3.22526C4.03125 2.94899 4.141 2.68404 4.33635 2.48869C4.5317 2.29334 4.79665 2.18359 5.07292 2.18359H21.7396C22.0159 2.18359 22.2808 2.29334 22.4762 2.48869C22.6715 2.68404 22.7812 2.94899 22.7812 3.22526V21.9753C22.7812 22.2515 22.6715 22.5165 22.4762 22.7118C22.2808 22.9072 22.0159 23.0169 21.7396 23.0169ZM9.23958 7.39193V9.47526H17.5729V7.39193H9.23958ZM9.23958 11.5586V13.6419H17.5729V11.5586H9.23958ZM9.23958 15.7253V17.8086H14.4479V15.7253H9.23958Z" fill="#6E4DDC"/>
</svg>
