<svg width="26" height="26" viewBox="0 0 26 26" fill="none" xmlns="http://www.w3.org/2000/svg">
<g clip-path="url(#clip0_45_6973)">
<path d="M14.487 3.64358C14.0705 3.2926 13.5434 3.1001 12.9988 3.1001C12.4542 3.1001 11.927 3.2926 11.5106 3.64358L4.58279 9.48859C4.32565 9.70531 4.11895 9.97557 3.97712 10.2805C3.8353 10.5854 3.76179 10.9176 3.76172 11.2539V20.804C3.76172 21.7954 4.56637 22.6001 5.55782 22.6001H8.63684C9.11319 22.6001 9.57004 22.4109 9.90687 22.074C10.2437 21.7372 10.4329 21.2804 10.4329 20.804V16.6956C10.4329 15.9976 10.9892 15.4311 11.682 15.4126H14.3156C14.6499 15.4215 14.9676 15.5605 15.2009 15.8002C15.4343 16.0398 15.5648 16.3611 15.5646 16.6956V20.804C15.5646 21.7954 16.3693 22.6001 17.3607 22.6001H20.4398C20.9161 22.6001 21.373 22.4109 21.7098 22.074C22.0466 21.7372 22.2359 21.2804 22.2359 20.804V11.2529C22.2358 10.9166 22.1623 10.5844 22.0205 10.2795C21.8786 9.97455 21.6719 9.70428 21.4148 9.48757L14.487 3.64358Z" fill="#6E4DDC"/>
</g>
<defs>
<clipPath id="clip0_45_6973">
<rect width="25" height="25" fill="white" transform="translate(0.5 0.100098)"/>
</clipPath>
</defs>
</svg>
