<svg width="26" height="26" viewBox="0 0 26 26" fill="none" xmlns="http://www.w3.org/2000/svg">
<g clip-path="url(#clip0_45_6989)">
<path d="M4.24395 22.7C4.04395 22.7 3.84395 22.6 3.74395 22.5C3.64395 22.4 3.54395 22.2 3.54395 22V3.2C3.54395 3 3.64395 2.8 3.74395 2.7C3.84395 2.6 4.04395 2.5 4.24395 2.5H20.9439C21.1439 2.5 21.3439 2.6 21.4439 2.7C21.5439 2.8 21.6439 3 21.6439 3.2V22C21.6439 22.2 21.5439 22.4 21.4439 22.5C21.3439 22.6 21.1439 22.7 20.9439 22.7H4.24395ZM5.34395 4C5.14395 4 5.04395 4.1 5.04395 4.3V21C5.04395 21.2 5.14395 21.3 5.34395 21.3H19.9439C20.1439 21.3 20.2439 21.2 20.2439 21V4.3C20.2439 4.1 20.1439 4 19.9439 4H5.34395ZM8.74394 17.5V16H13.3439V17.5H8.74394ZM8.74394 13.3V11.8H16.4439V13.3H8.74394ZM8.74394 9.2V7.7H16.4439V9.2H8.74394Z" fill="#CDCDCD"/>
</g>
<defs>
<clipPath id="clip0_45_6989">
<rect width="25" height="25" fill="white" transform="translate(0.09375 0.100098)"/>
</clipPath>
</defs>
</svg>
